<?xml version="1.0" encoding="UTF-8"?>
<svg id="Layer_1" xmlns="http://www.w3.org/2000/svg" baseProfile="tiny" version="1.2" viewBox="0 0 44.7 40">
  <!-- Generator: Adobe Illustrator 29.1.0, SVG Export Plug-In . SVG Version: 2.1.0 Build 142)  -->
  <path d="M30,3.1c-4.9-.2-9.1,1.6-12.5,5.1-2.8,2.8-4.4,6.3-4.8,10.2-.8,8.3,4.3,14.9,9.6,17.1-3.5-3.2-5.5-7.2-5.7-12s1.3-9,4.6-12.5c5-5.4,12.5-6.4,18-4.1,0,0-3.2-.6-2.5.9s.8,1.6,2.1,4c-4.1-1.8-8-1.8-11.8.6-2.7,1.7-4.5,4.3-5.2,7.5s-.2,6.3,1.6,9.1c1.2,1.9,2.9,3.4,5,4.4-4.6-5.9-5-11.8.3-17.4,3.3-3.5,8.4-3.9,12-2.4h-.3c-.6.1-.8.2-.7.8.2.9.4,1.7.6,2.6v.4c-2.7-1.4-5.2-1-7.7.7-1.7,1.1-2.8,2.8-3.3,4.8-.9,4.2,1.8,7.8,4.3,8.6-1.6-1.7-2.4-3.7-2.2-6.1.1-1.7.7-3.1,1.8-4.4,2-2.3,5.4-3.3,8.1-2.1-.6,0-.7.3-.7.8,0,4.5-1.4,8.6-4.2,12.1-2.8,3.5-6.4,5.7-10.7,6.5-6.4,1.2-12-.5-16.8-5.1-3.6-3.5-5.4-7.9-5.4-13S6.2,8.2,11.7,4.2C17.1.2,24,.8,30,3.1h0Z" fill="#fff"/>
</svg>