<?xml version="1.0" encoding="UTF-8"?>
<svg id="Layer_1" xmlns="http://www.w3.org/2000/svg" baseProfile="tiny" version="1.2" viewBox="0 0 137 40">
  <!-- Generator: Adobe Illustrator 29.1.0, SVG Export Plug-In . SVG Version: 2.1.0 Build 142)  -->
  <path d="M30.4,3.1c-4.9-.2-9.1,1.6-12.5,5.1-2.8,2.8-4.4,6.3-4.8,10.2-.8,8.3,4.3,14.9,9.6,17.1-3.5-3.2-5.5-7.2-5.7-12s1.3-9,4.6-12.5c5-5.4,12.5-6.4,18-4.1h-3.7c.7.9,1.3,1.6,1.8,2.4s1,1.7,1.5,2.5c-4.1-1.8-8-1.8-11.8.6-2.7,1.7-4.5,4.3-5.2,7.5s-.2,6.3,1.6,9.1c1.2,1.9,2.9,3.4,5,4.4-4.6-5.9-5-11.8.3-17.4,3.3-3.5,8.4-3.9,12-2.4h-.3c-.6.1-.8.2-.7.8.2.9.4,1.7.6,2.6,0,.1,0,.3,0,.4-2.7-1.4-5.2-1-7.7.7-1.7,1.1-2.8,2.8-3.3,4.8-.9,4.2,1.8,7.8,4.3,8.6-1.6-1.7-2.4-3.7-2.2-6.1.1-1.7.7-3.1,1.8-4.4,2-2.3,5.4-3.3,8.1-2.1-.6,0-.7.3-.7.8,0,4.5-1.4,8.6-4.2,12.1-2.8,3.5-6.4,5.7-10.7,6.5-6.4,1.2-12-.5-16.8-5.1-3.6-3.5-5.4-7.9-5.4-13S6.7,8.3,12.1,4.3C17.5.3,24.4.8,30.4,3.1h0Z" fill="#fff"/>
  <path d="M53.2,18.6c-1.1,0-2-.2-2.8-.6-.8-.4-1.5-.9-2-1.5-.5-.6-.9-1.3-1.2-2-.3-.7-.4-1.4-.4-2.1v-.4c0-.7.1-1.5.4-2.2.3-.7.7-1.4,1.2-2,.5-.6,1.2-1.1,2-1.4.8-.4,1.7-.5,2.8-.5s1.9.2,2.7.5c.8.4,1.5.8,2,1.4.5.6.9,1.3,1.2,2,.3.7.4,1.5.4,2.2v.4c0,.7-.1,1.4-.4,2.1-.3.7-.7,1.4-1.2,2-.5.6-1.2,1.1-2,1.5-.8.4-1.8.6-2.8.6ZM53.2,15.8c.5,0,1,0,1.4-.3.4-.2.8-.4,1-.7.3-.3.5-.7.7-1.1.2-.4.2-.9.2-1.4s0-1-.2-1.4c-.2-.4-.4-.8-.7-1.1-.3-.3-.6-.6-1-.7-.4-.2-.9-.2-1.4-.2s-1,0-1.4.2c-.4.2-.8.4-1,.7-.3.3-.5.7-.7,1.1-.2.4-.2.9-.2,1.4s0,.9.2,1.4c.2.4.4.8.7,1.1.3.3.6.6,1,.7.4.2.9.3,1.4.3Z" fill="#fff"/>
  <path d="M61,18.3V6.4h3v11.9h-3ZM63.7,8.9v-2.5h4.5v2.5h-4.5ZM63.7,13.7v-2.5h4.4v2.5h-4.4Z" fill="#fff"/>
  <path d="M69.7,18.3V6.4h2.9v11.9h-2.9ZM72.3,8.9v-2.5h4.9v2.5h-4.9ZM72.3,13.5v-2.5h4.6v2.5h-4.6ZM72.3,18.3v-2.5h5v2.5h-5Z" fill="#fff"/>
  <path d="M79,18.3V6.3h3v12h-3ZM81.2,14.7v-2.4h2.8c.3,0,.7,0,.9-.2.3-.1.5-.4.6-.6.2-.3.2-.6.2-.9s0-.7-.2-.9-.3-.5-.6-.6c-.3-.1-.6-.2-.9-.2h-2.8v-2.6h2.6c1,0,1.9.2,2.6.5s1.3.8,1.7,1.4c.4.6.6,1.4.6,2.2v.3c0,.9-.2,1.6-.6,2.2-.4.6-1,1-1.7,1.3-.7.3-1.6.4-2.6.4h-2.6ZM86,18.3l-3.3-5.1h3.3l3.5,5.1h-3.4Z" fill="#fff"/>
  <path d="M96.2,18.6c-1.1,0-2-.2-2.8-.6-.8-.4-1.5-.9-2-1.5-.5-.6-.9-1.3-1.2-2-.3-.7-.4-1.4-.4-2.1v-.4c0-.7.1-1.5.4-2.2.3-.7.7-1.4,1.2-2,.5-.6,1.2-1.1,2-1.4.8-.4,1.7-.5,2.8-.5s2,.2,2.7.5,1.5.8,2,1.4c.5.6.9,1.3,1.2,2,.3.7.4,1.5.4,2.2v.4c0,.7-.1,1.4-.4,2.1-.3.7-.7,1.4-1.2,2-.5.6-1.2,1.1-2,1.5-.8.4-1.8.6-2.8.6ZM96.2,15.8c.5,0,1,0,1.4-.3.4-.2.8-.4,1-.7.3-.3.5-.7.7-1.1.2-.4.2-.9.2-1.4s0-1-.2-1.4c-.2-.4-.4-.8-.7-1.1-.3-.3-.6-.6-1-.7-.4-.2-.9-.2-1.4-.2s-1,0-1.4.2c-.4.2-.8.4-1,.7-.3.3-.5.7-.7,1.1-.2.4-.2.9-.2,1.4s0,.9.2,1.4c.2.4.4.8.7,1.1.3.3.6.6,1,.7.4.2.9.3,1.4.3Z" fill="#fff"/>
  <path d="M47.7,33.7v-11.9h3.8l4.9,10h.5l-.3.3v-10.3h2.2v11.9h-3.8l-4.9-10h-.5l.3-.3v10.3h-2.1Z" fill="#fff"/>
  <path d="M61.3,33.7v-11.9h2.2v11.9h-2.2ZM63.2,23.7v-2h5.2v2h-5.2ZM63.2,28.6v-2h4.9v2h-4.9ZM63.2,33.7v-2h5.3v2h-5.3Z" fill="#fff"/>
  <path d="M69.5,23.8v-2h9.1v2h-9.1ZM72.9,33.7v-10.2h2.3v10.2h-2.3Z" fill="#fff"/>
  <path d="M82.3,33.7l-3-11.9h2.4l2.4,10.4-.6-.4h1.6l-.7.4,1.9-9.9h2l-2.4,11.5h-3.6ZM89.3,33.7l-2.6-11.5h2l2.2,9.9-.7-.4h1.6l-.6.4,2.1-10.4h2.2l-2.7,11.9h-3.6Z" fill="#fff"/>
  <path d="M102.5,34c-1.1,0-2-.2-2.8-.6-.8-.4-1.4-.9-1.9-1.5-.5-.6-.9-1.3-1.1-2-.3-.7-.4-1.4-.4-2.1v-.4c0-.7.1-1.5.4-2.2.3-.7.7-1.4,1.2-2,.5-.6,1.2-1.1,1.9-1.4.8-.4,1.7-.5,2.7-.5s1.9.2,2.7.5c.8.4,1.4.8,1.9,1.4.5.6.9,1.3,1.2,2,.3.7.4,1.5.4,2.2v.4c0,.7-.1,1.4-.4,2.1-.3.7-.6,1.4-1.2,2-.5.6-1.1,1.1-1.9,1.5-.8.4-1.7.6-2.8.6ZM102.5,31.8c.6,0,1.1-.1,1.6-.3.5-.2.9-.5,1.2-.9.3-.4.6-.8.8-1.3.2-.5.3-1,.3-1.6s0-1.1-.3-1.7c-.2-.5-.4-.9-.8-1.3-.3-.4-.8-.7-1.2-.9-.5-.2-1-.3-1.6-.3s-1.2.1-1.6.3c-.5.2-.9.5-1.2.9-.3.4-.6.8-.8,1.3-.2.5-.3,1.1-.3,1.7s0,1.1.3,1.6c.2.5.4.9.8,1.3.3.4.8.7,1.2.9.5.2,1,.3,1.6.3Z" fill="#fff"/>
  <path d="M110.5,33.7v-12h2.3v12h-2.3ZM112.1,29.7v-1.9h3c.4,0,.8,0,1.1-.3.3-.2.5-.4.7-.7.2-.3.3-.7.3-1.1s0-.8-.3-1.1c-.2-.3-.4-.6-.7-.7-.3-.2-.7-.3-1.1-.3h-3v-2h2.8c1,0,1.8.1,2.5.4.7.3,1.2.7,1.6,1.3.4.6.6,1.3.6,2.2v.3c0,.9-.2,1.6-.6,2.2-.4.6-.9,1-1.6,1.3-.7.3-1.5.4-2.5.4h-2.8ZM117.7,33.7l-3.6-5.2h2.6l3.7,5.2h-2.7Z" fill="#fff"/>
  <path d="M121.8,33.7v-11.9h2.3v11.9h-2.3ZM129.4,33.7l-4.3-5.6h-1.6l5.1-6.4h2.6l-4.6,5.7v-1.1c0,0,5.6,7.4,5.6,7.4h-2.8Z" fill="#fff"/>
</svg>